<mxfile host="app.diagrams.net" modified="2023-04-14T11:06:05.868Z" agent="Mozilla/5.0 (Windows NT 10.0; Win64; x64) AppleWebKit/537.36 (KHTML, like Gecko) Chrome/112.0.0.0 Safari/537.36" version="21.1.7" etag="CdxutSvVH5iPff_BEmHX" type="github">
  <diagram name="Page-1" id="aB_r5PY3af-Wt2mRhB-6">
    <mxGraphModel>
      <root>
        <mxCell id="0" />
        <mxCell id="1" parent="0" />
      </root>
    </mxGraphModel>
  </diagram>
</mxfile>
